<?xml version="1.0" encoding="UTF-8"?>
<svg xmlns="http://www.w3.org/2000/svg" xmlns:xlink="http://www.w3.org/1999/xlink" width="100px" height="100px" viewBox="0 0 50 50" version="1.1">
<g id="surface1">
<path style=" stroke:none;fill-rule:nonzero;fill:rgb(100%,79.215686%,15.686275%);fill-opacity:1;" d="M 30 20 L 23.886719 20 L 20 31.667969 L 25 31.667969 L 21.667969 41.667969 L 31.667969 28.332031 L 26.667969 28.332031 Z M 30 20 "/>
<path style=" stroke:none;fill-rule:nonzero;fill:rgb(16.078431%,71.372549%,96.470588%);fill-opacity:1;" d="M 16.667969 21.667969 C 16.667969 16.144531 21.144531 11.667969 26.667969 11.667969 C 30.515625 11.667969 33.660156 14.59375 34.082031 18.332031 L 36.667969 18.332031 C 39.425781 18.332031 41.667969 20.574219 41.667969 23.332031 C 41.667969 26.089844 39.425781 28.332031 36.667969 28.332031 L 35 28.332031 L 35 31.664062 L 36.667969 31.664062 C 41.269531 31.667969 45 27.9375 45 23.332031 C 45 18.730469 41.269531 15 36.667969 15 C 35.035156 11.085938 31.175781 8.332031 26.667969 8.332031 C 20.457031 8.332031 15.253906 12.585938 13.769531 18.332031 L 11.667969 18.332031 C 7.984375 18.332031 5 21.320312 5 25 C 5 28.679688 7.984375 31.667969 11.667969 31.667969 L 16.667969 31.667969 L 16.667969 28.332031 L 11.667969 28.332031 C 9.828125 28.332031 8.332031 26.835938 8.332031 25 C 8.332031 23.164062 9.828125 21.667969 11.667969 21.667969 Z M 16.667969 21.667969 "/>
</g>
</svg>
