<?xml version="1.0" encoding="utf-8"?>
<!-- Generator: Adobe Illustrator 24.0.0, SVG Export Plug-In . SVG Version: 6.00 Build 0)  -->
<svg version="1.1" xmlns="http://www.w3.org/2000/svg" xmlns:xlink="http://www.w3.org/1999/xlink" x="0px" y="0px"
	 viewBox="0 0 256 256" enable-background="new 0 0 256 256" xml:space="preserve">
<g id="Layer_2" display="none">
	<rect x="-1436" y="-3816" display="inline" fill="#FFFFFF" width="1786" height="5896"/>
</g>
<g id="Layer_1">
	<g>
		<path fill="#F0C020" d="M193.373,61.328c-3.489-1.153-7.093-2.161-9.116-10.876c-1.863,8.027-4.849,9.466-9.116,10.876
			c6.96,2.3,8.009,6.108,9.116,10.876C186.164,63.984,189.318,62.667,193.373,61.328z"/>
		<path fill="#F0C020" d="M68.502,165.951c-3.489-1.153-7.093-2.161-9.116-10.876c-1.863,8.027-4.849,9.466-9.116,10.876
			c6.96,2.3,8.009,6.108,9.116,10.876C61.293,168.608,64.447,167.291,68.502,165.951z"/>
		<path fill="#F0C020" d="M205.73,92.451c-3.489-1.153-7.093-2.161-9.116-10.876c-1.863,8.027-4.849,9.466-9.116,10.876
			c6.96,2.3,8.009,6.108,9.116,10.876C198.521,95.108,201.675,93.791,205.73,92.451z"/>
		<path fill="#72C2E9" d="M161.75,152.602V44.336c0-18.64-15.11-33.75-33.75-33.75h0c-18.64,0-33.75,15.11-33.75,33.75v108.369
			c0,3.667-1.418,7.157-3.837,9.912c-28.278,32.209-5.175,82.758,37.335,82.968c27.73,0.137,50.252-22.301,50.252-49.999
			c0-12.737-4.764-24.359-12.606-33.187C163.005,159.71,161.75,156.199,161.75,152.602z"/>
		<path fill="#C5E5FF" d="M90.215,214.857c-0.638-1.225-0.161-2.734,1.064-3.371c1.223-0.635,2.733-0.161,3.371,1.064
			c11.754,22.599,41.742,27.677,59.867,9.554c7.082-7.082,10.982-16.5,10.982-26.518c0-9.186-3.356-18.023-9.451-24.886
			c-4.384-4.935-6.799-11.362-6.799-18.099V44.336c0-1.381,1.119-2.5,2.5-2.5s2.5,1.119,2.5,2.5v108.266
			c0,5.512,1.967,10.76,5.537,14.778c6.908,7.778,10.713,17.795,10.713,28.206c0,11.354-4.421,22.026-12.447,30.053
			C137.305,246.385,103.353,240.121,90.215,214.857z M86.546,204.909c-0.559-2.432-0.896-4.926-1.005-7.414
			c-0.06-1.379,1.01-2.546,2.39-2.606c1.367-0.043,2.547,1.009,2.606,2.39c0.095,2.186,0.392,4.376,0.882,6.512
			c0.309,1.346-0.531,2.688-1.877,2.996C88.179,207.096,86.852,206.241,86.546,204.909z"/>
		<path fill="#FC5D3D" d="M146.073,179.049c-1.704-1.861-2.573-4.339-2.573-6.862V44.336c0-8.56-6.94-15.5-15.5-15.5h0
			c-8.56,0-15.5,6.94-15.5,15.5v127.936c0,2.479-0.858,4.912-2.536,6.736c-13.985,15.204-3.863,39.776,16.484,41.03
			c14.233,0.877,26.052-10.408,26.052-24.452C152.5,189.211,150.062,183.406,146.073,179.049z"/>
		<path fill="#FFCBC2" d="M128,212.586c-3.533,0-6.924-1.077-9.805-3.115c-1.127-0.798-1.394-2.357-0.597-3.485
			c0.798-1.127,2.359-1.395,3.485-0.597c2.031,1.438,4.423,2.197,6.916,2.197c6.617,0,12-5.383,12-12
			c0-2.846-1.083-6.572-3.426-8.488c-3.302-2.7-5.574-5.664-5.574-10.483V84.086c0-1.381,1.119-2.5,2.5-2.5s2.5,1.119,2.5,2.5
			v92.528c0,3.861,2.593,5.676,3.738,6.612c3.643,2.977,5.262,8.145,5.262,12.359C145,204.96,137.374,212.586,128,212.586z
			 M111.598,200.063c-0.396-1.454-0.598-2.961-0.598-4.477c0-1.381,1.119-2.5,2.5-2.5s2.5,1.119,2.5,2.5
			c0,1.071,0.142,2.136,0.422,3.162c0.363,1.332-0.423,2.706-1.755,3.069C113.32,202.183,111.958,201.384,111.598,200.063z"/>
		<path fill="#AFAFAF" d="M112.5,44.336v39.75h31v-39.75c0-8.56-6.94-15.5-15.5-15.5h0C119.44,28.836,112.5,35.776,112.5,44.336z"/>
		<path fill="#EFEFEF" d="M133.5,86.586c-1.381,0-2.5-1.119-2.5-2.5v-34c0-1.381,1.119-2.5,2.5-2.5s2.5,1.119,2.5,2.5v34
			C136,85.467,134.881,86.586,133.5,86.586z"/>
		<g>
			<path d="M174.36,63.693c5.81,1.921,6.471,4.766,7.47,9.073c0.597,2.569,4.258,2.569,4.854,0c1.659-7.153,3.971-7.917,7.47-9.073
				c2.271-0.75,2.276-3.98,0-4.731c-3.271-1.072-5.779-1.789-7.471-9.073c-0.594-2.564-4.26-2.557-4.853,0
				c-1.661,7.154-3.972,7.917-7.47,9.073C172.089,59.712,172.084,62.941,174.36,63.693z M184.266,57.602
				c0.989,1.715,2.098,2.892,3.245,3.746c-1.191,0.868-2.268,2.011-3.21,3.614c-0.797-1.285-1.876-2.501-3.401-3.581
				C182.154,60.488,183.284,59.3,184.266,57.602z"/>
			<path d="M69.283,163.585c-3.271-1.072-5.779-1.789-7.471-9.073c-0.595-2.564-4.26-2.557-4.853,0
				c-1.661,7.154-3.972,7.917-7.47,9.073c-2.271,0.75-2.276,3.979,0,4.731c5.81,1.921,6.471,4.766,7.47,9.073
				c0.597,2.569,4.257,2.569,4.854,0c1.659-7.153,3.971-7.916,7.47-9.073C71.554,167.567,71.559,164.337,69.283,163.585z
				 M59.43,169.586c-0.797-1.285-1.876-2.501-3.401-3.581c1.254-0.894,2.384-2.081,3.366-3.78c0.989,1.715,2.098,2.892,3.245,3.746
				C61.449,166.84,60.372,167.983,59.43,169.586z"/>
			<path d="M194.187,81.012c-1.661,7.154-3.972,7.917-7.47,9.073c-2.271,0.75-2.276,3.979,0,4.731
				c5.811,1.921,6.471,4.766,7.47,9.073c0.597,2.569,4.258,2.569,4.854,0c1.659-7.153,3.971-7.916,7.47-9.073
				c2.271-0.75,2.276-3.98,0-4.732c-3.271-1.072-5.779-1.789-7.471-9.073C198.446,78.448,194.78,78.455,194.187,81.012z
				 M196.623,88.725c0.989,1.715,2.098,2.892,3.245,3.746c-1.191,0.869-2.268,2.011-3.21,3.615
				c-0.797-1.285-1.876-2.501-3.401-3.581C194.511,91.612,195.641,90.424,196.623,88.725z"/>
			<path d="M128,26.336c-9.92,0-18,8.08-18,18v127.939c0,1.91-0.681,3.74-1.88,5.04c-9.929,10.796-9.513,27.67,1.43,37.94
				c0.97,0.91,2.63,0.85,3.53-0.11c0.939-1.01,0.89-2.59-0.11-3.529c-8.892-8.357-9.299-22.074-1.17-30.921
				c2.07-2.239,3.2-5.239,3.2-8.42V86.586h26v85.6c0,3.23,1.149,6.271,3.229,8.55c3.721,4.061,5.771,9.341,5.771,14.851
				c0,11.59-9.05,21.24-20.61,21.95c-1.449,0.108-2.42,1.318-2.34,2.659c0.08,1.311,1.18,2.341,2.49,2.341
				c11.619,0,25.46-10.815,25.46-26.95c0-6.771-2.521-13.24-7.08-18.23c-1.24-1.34-1.92-3.18-1.92-5.17V44.776
				C146,34.717,138.032,26.336,128,26.336z M141,81.586h-26v-37.25c0.01-7.16,5.84-12.99,13-13c7.303,0,13,6.263,13,13.439V81.586z"
				/>
			<path d="M117.37,217.786c-0.483,1.319,0.214,2.731,1.479,3.199h0.01c1.335,0.479,2.751-0.235,3.21-1.5
				c0.45-1.263-0.169-2.715-1.5-3.199C119.29,215.816,117.819,216.526,117.37,217.786z"/>
			<path d="M81.359,186.546v-0.01c0.261-1.36-0.63-2.67-1.979-2.931c-1.35-0.26-2.68,0.65-2.93,1.98
				c-0.261,1.359,0.63,2.67,1.979,2.93C79.853,188.785,81.094,187.844,81.359,186.546z"/>
			<path d="M209.899,142.086H195.92c-0.66,0-1.271,0.25-1.74,0.71l-23.262,22.575c-1.13-1.603-2.343-3.156-3.658-4.636
				c-1.94-2.18-3.01-5.069-3.01-8.13V44.336c0-20.036-16.217-36.25-36.25-36.25c-20.038,0-36.25,16.217-36.25,36.25v43.082
				L63.06,59.556c-0.47-0.45-1.09-0.7-1.74-0.7H47.34c-1.38,0-2.5,1.12-2.5,2.5s1.12,2.5,2.5,2.5H60.3l31.45,30.523v58.327
				c0,2.96-1.141,5.899-3.22,8.26c-3.82,4.35-6.87,9.26-9.07,14.58c-0.527,1.306,0.095,2.735,1.35,3.27
				c1.26,0.521,2.76-0.12,3.271-1.359c1.989-4.82,4.76-9.261,8.21-13.19c2.88-3.27,4.46-7.38,4.46-11.56v-10.62h6.75
				c1.38,0,2.5-1.12,2.5-2.5s-1.12-2.5-2.5-2.5h-6.75v-22.75h6.75c1.38,0,2.5-1.12,2.5-2.5s-1.12-2.5-2.5-2.5h-6.75v-22.75h6.75
				c1.38,0,2.5-1.12,2.5-2.5s-1.12-2.5-2.5-2.5h-6.75v-22.75h6.75c1.38,0,2.5-1.12,2.5-2.5s-1.12-2.5-2.5-2.5h-6.75v-9.5
				c0.03-17.2,14.05-31.22,31.25-31.25c17.2,0.03,31.22,14.05,31.25,31.25v108.27c0,4.28,1.52,8.351,4.27,11.45
				c7.721,8.7,11.98,19.89,11.98,31.53c0,12.68-4.94,24.609-13.91,33.59c-29.695,29.66-80.46,8.777-81.09-33.19
				c-0.01-1.369-1.13-2.479-2.5-2.479h-0.021c-1.38,0.01-2.489,1.14-2.479,2.52c0,44.93,55.909,70.385,89.62,36.681
				c9.853-9.855,15.38-23.1,15.38-37.12c0-9.155-2.393-18.061-6.847-25.903l23.276-22.597h12.97c1.381,0,2.5-1.12,2.5-2.5
				S211.28,142.086,209.899,142.086z"/>
			<path d="M218.92,147.086h25.5c1.38,0,2.5-1.12,2.5-2.5s-1.12-2.5-2.5-2.5h-25.5c-1.38,0-2.5,1.12-2.5,2.5
				S217.54,147.086,218.92,147.086z"/>
			<path d="M244.42,152.576h-25.5c-1.38,0-2.5,1.119-2.5,2.5c0,1.38,1.12,2.5,2.5,2.5h25.5c1.38,0,2.5-1.12,2.5-2.5
				C246.92,153.696,245.8,152.576,244.42,152.576z"/>
			<path d="M244.42,163.066h-25.5c-1.38,0-2.5,1.12-2.5,2.5s1.12,2.5,2.5,2.5h25.5c1.38,0,2.5-1.12,2.5-2.5
				S245.8,163.066,244.42,163.066z"/>
			<path d="M37.08,58.776h-25.5c-1.38,0-2.5,1.13-2.5,2.511c0,1.369,1.12,2.489,2.5,2.489h25.5c1.38,0,2.5-1.12,2.5-2.489
				C39.58,59.906,38.46,58.776,37.08,58.776z"/>
			<path d="M37.08,69.276h-25.5c-1.38,0-2.5,1.12-2.5,2.5c0,1.37,1.12,2.5,2.5,2.5h25.5c1.38,0,2.5-1.13,2.5-2.5
				C39.58,70.396,38.46,69.276,37.08,69.276z"/>
			<path d="M37.08,79.756h-25.5c-1.38,0-2.5,1.13-2.5,2.51c0,1.37,1.12,2.49,2.5,2.49h25.5c1.38,0,2.5-1.12,2.5-2.49
				C39.58,80.886,38.46,79.756,37.08,79.756z"/>
		</g>
	</g>
</g>
</svg>
