<?xml version="1.0" encoding="utf-8"?>
<!-- Generator: Adobe Illustrator 16.0.0, SVG Export Plug-In . SVG Version: 6.00 Build 0)  -->
<!DOCTYPE svg PUBLIC "-//W3C//DTD SVG 1.0//EN" "http://www.w3.org/TR/2001/REC-SVG-20010904/DTD/svg10.dtd">
<svg version="1.0" id="Layer_1" xmlns="http://www.w3.org/2000/svg" xmlns:xlink="http://www.w3.org/1999/xlink" x="0px" y="0px"
	 width="100px" height="100px" viewBox="0 0 100 100" enable-background="new 0 0 100 100" xml:space="preserve">
<polygon fill="#FFCA28" points="60,40 47.777,40 40,63.333 50,63.333 43.334,83.333 63.334,56.667 53.334,56.667 "/>
<path fill="#29B6F6" d="M33.334,43.333c0-11.045,8.955-20,20-20c7.701,0,13.99,5.852,14.83,13.333h5.17c5.514,0,10,4.486,10,10
	s-4.486,10-10,10H70v6.666h3.334C82.539,63.333,90,55.872,90,46.667S82.539,30,73.334,30c-3.264-7.829-10.986-13.333-20-13.333
	c-12.42,0-22.828,8.506-25.793,20h-4.207C15.971,36.667,10,42.637,10,50s5.971,13.333,13.334,13.333h10v-6.666h-10
	c-3.678,0-6.668-2.992-6.668-6.667s2.99-6.667,6.668-6.667H33.334z"/>
</svg>
