<?xml version="1.0" encoding="utf-8"?>
<!-- Generator: Adobe Illustrator 23.0.6, SVG Export Plug-In . SVG Version: 6.00 Build 0)  -->
<svg version="1.1" id="Layer_1" xmlns="http://www.w3.org/2000/svg" xmlns:xlink="http://www.w3.org/1999/xlink" x="0px" y="0px"
	 viewBox="0 0 128 128" style="enable-background:new 0 0 128 128;" xml:space="preserve">
<style type="text/css">
	.st0{fill:#6BC1B0;}
	.st1{fill:#FFFFFF;}
	.st2{fill:#38A590;}
</style>
<title>WATER DROP</title>
<g>
	<path class="st0" d="M85.2,67.2c0,11.7-9.5,21.2-21.2,21.2c-11.7,0-21.2-9.5-21.2-21.2C42.8,55.5,64,29.1,64,29.1
		S85.2,55.5,85.2,67.2z"/>
	<path class="st1" d="M64,80.2c-1,0-1.8-0.8-1.8-1.8s0.8-1.8,1.8-1.8c5.2,0,9.4-4.2,9.4-9.4c0-1,0.8-1.8,1.8-1.8s1.8,0.8,1.8,1.8
		C76.9,74.4,71.1,80.1,64,80.2z"/>
	<path class="st2" d="M102.1,95c-0.8-0.5-1.9-0.2-2.4,0.7c0,0,0,0,0,0c-2.4,4.3-7.8,5.9-12.1,3.5c-1.5-0.8-2.7-2-3.5-3.5
		c-0.6-1.2-2.4-1.2-3.1,0c-2.4,4.3-7.8,5.9-12.1,3.5c-1.5-0.8-2.7-2-3.5-3.5c-0.6-1.2-2.4-1.2-3.1,0c-2.4,4.3-7.8,5.9-12.1,3.5
		c-1.5-0.8-2.7-2-3.5-3.5c-0.6-1.1-2.3-1.3-3.1,0c-2.4,4.3-7.8,5.9-12.1,3.5c-1.5-0.8-2.7-2-3.5-3.5c-0.5-0.8-1.6-1.1-2.4-0.6
		c-0.8,0.5-1.1,1.5-0.7,2.3c3.3,6,10.8,8.2,16.8,4.9c1.3-0.7,2.4-1.6,3.3-2.7c4.5,5.1,12.3,5.7,17.5,1.2c0.4-0.4,0.8-0.8,1.2-1.2
		c4.5,5.1,12.3,5.7,17.5,1.2c0.4-0.4,0.8-0.8,1.2-1.2c4.5,5.2,12.3,5.7,17.5,1.2c1.1-0.9,2-2.1,2.7-3.3
		C103.3,96.5,103,95.4,102.1,95z"/>
</g>
</svg>
